<?xml version="1.0" standalone="no"?>
<!DOCTYPE svg PUBLIC "-//W3C//DTD SVG 20010904//EN"
 "http://www.w3.org/TR/2001/REC-SVG-20010904/DTD/svg10.dtd">
<svg version="1.0" xmlns="http://www.w3.org/2000/svg"
 width="725.000000pt" height="725.000000pt" viewBox="0 0 725.000000 725.000000"
 preserveAspectRatio="xMidYMid meet">
<metadata>
Created by potrace 1.14, written by Peter Selinger 2001-2017
</metadata>
<g transform="translate(0.000000,725.000000) scale(0.100000,-0.100000)"
fill="#000000" stroke="none">
<path d="M3458 7163 c-16 -4 -186 -199 -221 -253 -15 -24 -19 -59 -23 -222 -3
-106 -8 -196 -12 -200 -4 -4 -70 -21 -147 -38 -77 -17 -147 -33 -155 -35 -8
-2 -65 -15 -126 -29 -62 -14 -119 -28 -127 -32 -19 -7 -23 -3 -121 149 -85
130 -122 177 -139 177 -5 0 -64 21 -131 46 -67 26 -134 50 -149 55 -25 7 -51
-6 -225 -113 -108 -67 -198 -121 -198 -122 -4 -2 -14 -131 -19 -251 l-6 -130
101 -150 102 -149 -153 -149 c-85 -82 -184 -178 -220 -214 l-66 -65 -154 89
-154 88 -80 -1 c-67 -1 -172 -8 -260 -19 -11 -1 -25 -3 -31 -4 -6 0 -41 -49
-79 -108 -37 -60 -92 -145 -121 -190 l-53 -82 55 -118 c31 -65 67 -141 80
-170 14 -31 40 -64 62 -80 20 -15 41 -32 47 -36 5 -4 54 -40 109 -79 l98 -72
-6 -40 c-3 -23 -8 -50 -10 -61 -14 -62 -48 -223 -50 -240 -5 -32 -37 -187 -47
-225 l-9 -35 -172 0 c-127 0 -181 -4 -203 -14 -25 -11 -197 -141 -215 -161 -3
-3 -22 -19 -43 -35 l-39 -29 7 -135 c4 -75 8 -161 10 -191 2 -30 4 -74 4 -97
1 -45 -9 -37 219 -198 l57 -40 190 -1 c105 -1 195 -2 202 -3 10 -1 26 -42 38
-101 4 -17 19 -75 35 -135 5 -22 14 -58 19 -80 5 -22 17 -67 26 -100 9 -33 19
-73 23 -90 14 -74 20 -68 -172 -183 l-180 -107 -34 -65 c-19 -36 -33 -65 -32
-65 2 0 -9 -29 -49 -122 l-23 -52 32 -58 c18 -32 46 -83 63 -113 33 -61 119
-214 121 -217 2 -2 39 -10 111 -23 28 -5 86 -16 130 -24 44 -9 91 -16 105 -16
14 0 100 41 192 90 92 50 172 90 178 90 6 0 30 -19 54 -42 24 -24 98 -95 166
-158 67 -63 145 -136 172 -163 l50 -48 -33 -47 -32 -47 -856 0 -856 0 0 -585
0 -585 3528 -1 c3261 -2 3527 -1 3528 15 0 9 1 270 2 579 1 367 -1 566 -8 570
-5 4 -359 7 -786 7 -672 0 -778 2 -790 15 -8 8 -27 32 -43 52 l-28 37 90 93
c50 51 143 148 208 216 l119 123 35 -19 c186 -100 336 -174 359 -177 16 -2 49
1 73 7 51 11 59 13 118 24 25 4 47 8 50 9 3 1 26 5 51 9 25 4 50 11 55 14 6 4
53 93 107 199 l96 192 -62 133 c-35 73 -68 142 -74 153 -6 12 -86 62 -176 114
-145 81 -165 95 -161 114 2 12 6 33 9 47 2 14 14 72 26 130 11 58 23 116 25
130 5 28 12 63 19 98 10 46 13 59 25 125 l12 67 102 1 c281 2 281 2 344 45 31
21 59 41 62 45 3 3 30 23 60 44 93 65 117 84 117 97 1 50 15 370 17 401 2 20
0 37 -3 37 -3 0 -17 10 -31 23 -38 35 -221 177 -228 178 -4 0 -15 2 -26 4 -16
3 -233 14 -339 17 -21 1 -40 4 -42 8 -4 6 -110 481 -119 530 -2 14 -5 30 -6
35 -6 26 2 44 20 50 11 3 26 12 32 18 7 7 48 37 91 67 157 110 178 129 204
189 44 100 51 115 76 178 l25 62 -58 103 c-31 57 -83 149 -114 206 -54 96 -59
102 -89 103 -18 0 -41 2 -51 4 -11 2 -56 7 -100 10 -45 3 -97 8 -117 11 -36 5
-101 -24 -359 -162 l-64 -35 -210 210 -209 209 33 54 c167 269 178 290 174
328 -3 34 -15 195 -19 248 -1 24 -7 48 -11 52 -7 7 -159 114 -258 182 -10 7
-37 27 -59 44 l-42 31 -90 -29 c-49 -17 -103 -36 -120 -43 -16 -7 -48 -18 -70
-24 -57 -15 -83 -41 -171 -171 -42 -63 -89 -130 -103 -148 -25 -35 -28 -35
-101 -18 -14 3 -34 8 -45 11 -11 2 -76 18 -145 35 -69 17 -147 35 -174 40 -88
18 -126 31 -127 43 -1 7 -3 35 -4 62 -12 212 -18 282 -27 299 -6 12 -36 55
-67 96 -31 41 -68 93 -84 115 -15 22 -33 48 -41 57 -11 16 -40 18 -226 23
-118 4 -216 7 -219 9 -4 1 -13 1 -23 -1z"/>
</g>
</svg>
